<svg width="144" height="43" viewBox="0 0 144 43" fill="none" xmlns="http://www.w3.org/2000/svg">
<path d="M8.61284 8.1391C6.58912 8.60889 5.16769 9.39188 3.73422 10.8494C1.79482 12.825 0.939556 14.8969 0.951602 17.6675C0.963648 20.438 2.03574 23.57 4.52926 28.1234C5.44475 29.7977 5.49293 29.87 7.89008 33.9295C8.8658 35.5798 9.87767 37.2903 10.1306 37.712C10.5763 38.4708 10.5763 38.4708 10.757 38.1938C11.1184 37.6276 14.7924 31.3517 15.8284 29.5448C17.2257 27.1115 18.7917 23.8832 19.3217 22.3172C20.0324 20.2814 20.2733 18.8721 20.2011 17.2458C20.1288 15.5715 19.924 14.7523 19.2253 13.3309C18.0448 10.9217 15.985 9.18709 13.3108 8.33183C12.2387 7.99454 9.72107 7.88613 8.61284 8.1391ZM12.0218 14.2464C12.7085 14.5476 13.5396 15.4269 13.7806 16.1256C14.0456 16.8965 14.0215 18.1372 13.7444 18.7636C13.1542 20.0646 11.9857 20.7994 10.5402 20.7874C9.54038 20.7753 8.97422 20.5464 8.25146 19.8839C7.50461 19.1973 7.19141 18.4625 7.17937 17.4265C7.15528 14.8607 9.63675 13.2345 12.0218 14.2464Z" fill="#26BF00"/>
<path d="M4.01131 33.8693C1.62621 34.7125 0 36.3267 0 37.8565C0 41.0126 4.72202 43.1808 11.2028 42.9881C14.3347 42.8917 16.5512 42.4219 18.4544 41.4342C20.0927 40.591 20.9479 39.5791 21.1527 38.242C21.3455 37.0254 20.4541 35.616 18.9242 34.7125C18.1412 34.2427 16.515 33.5682 16.4187 33.6645C16.3946 33.7007 16.0814 34.2186 15.72 34.8209C15.2984 35.5316 15.1177 35.9412 15.2141 35.9774C15.2984 36.0014 15.6598 36.1099 16.0211 36.2303C17.4305 36.664 18.5508 37.4108 18.5508 37.9168C18.5508 38.2179 17.8521 38.8804 17.1896 39.2057C16.3464 39.6152 15.0454 39.9766 13.6119 40.1934C12.0942 40.4344 9.09471 40.4223 7.49259 40.1814C5.16772 39.8441 3.08377 38.9888 2.74648 38.2661C2.43329 37.5795 3.28855 36.8206 4.96294 36.3026C5.54115 36.1219 6.02298 35.9412 6.02298 35.893C6.02298 35.7726 4.7702 33.6284 4.69793 33.6404C4.66179 33.6404 4.3486 33.7488 4.01131 33.8693Z" fill="#26BF00"/>
<path d="M49.19 9.62C51.01 9.62 52.37 10.09 53.27 11.03C54.17 11.95 54.62 13.45 54.62 15.53V26H52.01V15.65C52.01 13.11 50.92 11.84 48.74 11.84C47.18 11.84 46.06 12.29 45.38 13.19C44.72 14.09 44.39 15.4 44.39 17.12V26H41.78V15.65C41.78 13.11 40.68 11.84 38.48 11.84C36.86 11.84 35.74 12.34 35.12 13.34C34.5 14.34 34.19 15.78 34.19 17.66V26H31.55V9.92H33.68L34.07 12.11H34.22C34.72 11.27 35.39 10.65 36.23 10.25C37.09 9.83 38 9.62 38.96 9.62C41.48 9.62 43.12 10.52 43.88 12.32H44.03C44.57 11.4 45.3 10.72 46.22 10.28C47.16 9.84 48.15 9.62 49.19 9.62ZM65.6771 9.65C67.6371 9.65 69.0871 10.08 70.0271 10.94C70.9671 11.8 71.4371 13.17 71.4371 15.05V26H69.5171L69.0071 23.72H68.8871C68.1871 24.6 67.4471 25.25 66.6671 25.67C65.9071 26.09 64.8471 26.3 63.4871 26.3C62.0271 26.3 60.8171 25.92 59.8571 25.16C58.8971 24.38 58.4171 23.17 58.4171 21.53C58.4171 19.93 59.0471 18.7 60.3071 17.84C61.5671 16.96 63.5071 16.48 66.1271 16.4L68.8571 16.31V15.35C68.8571 14.01 68.5671 13.08 67.9871 12.56C67.4071 12.04 66.5871 11.78 65.5271 11.78C64.6871 11.78 63.8871 11.91 63.1271 12.17C62.3671 12.41 61.6571 12.69 60.9971 13.01L60.1871 11.03C60.8871 10.65 61.7171 10.33 62.6771 10.07C63.6371 9.79 64.6371 9.65 65.6771 9.65ZM66.4571 18.23C64.4571 18.31 63.0671 18.63 62.2871 19.19C61.5271 19.75 61.1471 20.54 61.1471 21.56C61.1471 22.46 61.4171 23.12 61.9571 23.54C62.5171 23.96 63.2271 24.17 64.0871 24.17C65.4471 24.17 66.5771 23.8 67.4771 23.06C68.3771 22.3 68.8271 21.14 68.8271 19.58V18.14L66.4571 18.23ZM77.7535 3.89C78.1535 3.89 78.5035 4.03 78.8035 4.31C79.1235 4.57 79.2835 4.99 79.2835 5.57C79.2835 6.13 79.1235 6.55 78.8035 6.83C78.5035 7.11 78.1535 7.25 77.7535 7.25C77.3135 7.25 76.9435 7.11 76.6435 6.83C76.3435 6.55 76.1935 6.13 76.1935 5.57C76.1935 4.99 76.3435 4.57 76.6435 4.31C76.9435 4.03 77.3135 3.89 77.7535 3.89ZM79.0435 9.92V26H76.4035V9.92H79.0435ZM94.6079 21.56C94.6079 23.12 94.0279 24.3 92.8679 25.1C91.7079 25.9 90.1479 26.3 88.1879 26.3C87.0679 26.3 86.0979 26.21 85.2779 26.03C84.4779 25.85 83.7679 25.6 83.1479 25.28V22.88C83.7879 23.2 84.5579 23.5 85.4579 23.78C86.3779 24.04 87.3079 24.17 88.2479 24.17C89.5879 24.17 90.5579 23.96 91.1579 23.54C91.7579 23.1 92.0579 22.52 92.0579 21.8C92.0579 21.4 91.9479 21.04 91.7279 20.72C91.5079 20.4 91.1079 20.08 90.5279 19.76C89.9679 19.44 89.1579 19.08 88.0979 18.68C87.0579 18.28 86.1679 17.88 85.4279 17.48C84.6879 17.08 84.1179 16.6 83.7179 16.04C83.3179 15.48 83.1179 14.76 83.1179 13.88C83.1179 12.52 83.6679 11.47 84.7679 10.73C85.8879 9.99 87.3479 9.62 89.1479 9.62C90.1279 9.62 91.0379 9.72 91.8779 9.92C92.7379 10.1 93.5379 10.36 94.2779 10.7L93.3779 12.8C92.6979 12.52 91.9879 12.28 91.2479 12.08C90.5079 11.88 89.7479 11.78 88.9679 11.78C87.8879 11.78 87.0579 11.96 86.4779 12.32C85.9179 12.66 85.6379 13.13 85.6379 13.73C85.6379 14.17 85.7679 14.55 86.0279 14.87C86.2879 15.17 86.7179 15.47 87.3179 15.77C87.9379 16.05 88.7579 16.39 89.7779 16.79C90.7979 17.17 91.6679 17.56 92.3879 17.96C93.1079 18.36 93.6579 18.85 94.0379 19.43C94.4179 19.99 94.6079 20.7 94.6079 21.56ZM102.931 22.8945C103.692 22.9141 104.327 22.709 104.835 22.2793C105.343 21.8398 105.675 21.2588 105.831 20.5361L109.713 20.5215C109.645 21.6348 109.293 22.6357 108.658 23.5244C108.033 24.4131 107.193 25.1064 106.139 25.6045C105.094 26.1025 103.99 26.3369 102.828 26.3076C100.904 26.2783 99.3809 25.6143 98.2578 24.3154C97.1348 23.0166 96.5928 21.2881 96.6318 19.1299L96.6758 18.3242L96.6904 18.1631C96.9541 15.585 97.8232 13.5439 99.2979 12.04C100.772 10.5264 102.594 9.79883 104.762 9.85742C106.549 9.89648 107.965 10.4824 109.01 11.6152C110.064 12.7383 110.582 14.2227 110.562 16.0684H106.71C106.71 15.2188 106.524 14.5498 106.153 14.0615C105.782 13.5732 105.226 13.3096 104.483 13.2705C102.511 13.2119 101.314 14.6523 100.895 17.5918C100.748 18.6562 100.694 19.5547 100.733 20.2871C100.831 21.9961 101.563 22.8652 102.931 22.8945ZM118.839 26.293C117.452 26.2832 116.222 25.9463 115.147 25.2822C114.083 24.6084 113.287 23.6904 112.76 22.5283C112.232 21.3564 112.027 20.0674 112.145 18.6611L112.188 18.0752C112.335 16.5322 112.784 15.1162 113.536 13.8271C114.288 12.5381 115.255 11.5469 116.437 10.8535C117.618 10.1504 118.927 9.81836 120.362 9.85742C122.403 9.89648 123.946 10.6484 124.991 12.1133C126.046 13.5684 126.446 15.4141 126.192 17.6504L125.958 19.4521H116.246C116.207 20.4775 116.456 21.2979 116.993 21.9131C117.53 22.5283 118.263 22.8457 119.19 22.8652C120.694 22.9043 122.013 22.3232 123.146 21.1221L125.035 23.4658C124.439 24.3643 123.58 25.0674 122.457 25.5752C121.334 26.0732 120.128 26.3125 118.839 26.293ZM120.157 13.2705C119.396 13.251 118.717 13.4902 118.121 13.9883C117.535 14.4863 117.008 15.3506 116.539 16.5811H122.223L122.311 16.2002C122.369 15.8096 122.374 15.4385 122.325 15.0869C122.228 14.5205 121.988 14.0811 121.607 13.7686C121.227 13.4463 120.743 13.2803 120.157 13.2705ZM142.408 18.1191C142.203 19.7793 141.769 21.2539 141.104 22.543C140.44 23.832 139.615 24.7891 138.629 25.4141C137.643 26.0391 136.549 26.3369 135.348 26.3076C133.814 26.2686 132.604 25.6973 131.715 24.5938L130.265 32.0938H126.134L129.928 10.1504L133.736 10.1357L133.458 11.7324C134.601 10.4434 135.948 9.81836 137.501 9.85742C139.054 9.89648 140.26 10.4629 141.119 11.5566C141.979 12.6406 142.438 14.1152 142.496 15.9805C142.516 16.5859 142.486 17.2988 142.408 18.1191ZM138.307 17.8115L138.395 16.4053C138.414 15.458 138.238 14.7061 137.867 14.1494C137.506 13.5928 136.974 13.3047 136.271 13.2852C135.069 13.2461 134.078 13.7539 133.297 14.8086L132.11 21.3418C132.472 22.3281 133.248 22.8408 134.439 22.8799C135.436 22.9092 136.266 22.5234 136.93 21.7227C137.594 20.9219 138.053 19.6182 138.307 17.8115Z" fill="#26BF00"/>
</svg>
